<svg width="184" height="39" viewBox="0 0 184 39" fill="none" xmlns="http://www.w3.org/2000/svg">
<path d="M13.8189 38H0.915483V3.09091H13.8018C17.3587 3.09091 20.4212 3.78977 22.9893 5.1875C25.5689 6.57386 27.5575 8.57386 28.9553 11.1875C30.353 13.7898 31.0518 16.9034 31.0518 20.5284C31.0518 24.1648 30.353 27.2898 28.9553 29.9034C27.5689 32.517 25.5859 34.5227 23.0064 35.9205C20.4268 37.3068 17.3643 38 13.8189 38ZM9.35298 30.8068H13.495C15.4496 30.8068 17.103 30.4773 18.4553 29.8182C19.8189 29.1477 20.8473 28.0625 21.5405 26.5625C22.245 25.0511 22.5973 23.0398 22.5973 20.5284C22.5973 18.017 22.245 16.017 21.5405 14.5284C20.8359 13.0284 19.7962 11.9489 18.4212 11.2898C17.0575 10.6193 15.3757 10.2841 13.3757 10.2841H9.35298V30.8068ZM48.1996 38.4943C45.4496 38.4943 43.0859 37.9318 41.1087 36.8068C39.1428 35.6705 37.6257 34.0909 36.5575 32.0682C35.5007 30.0341 34.9723 27.6761 34.9723 24.9943C34.9723 22.3011 35.5007 19.9432 36.5575 17.9205C37.6257 15.8864 39.1428 14.3068 41.1087 13.1818C43.0859 12.0455 45.4496 11.4773 48.1996 11.4773C50.9496 11.4773 53.3075 12.0455 55.2734 13.1818C57.2507 14.3068 58.7678 15.8864 59.8246 17.9205C60.8928 19.9432 61.4268 22.3011 61.4268 24.9943C61.4268 27.6761 60.8928 30.0341 59.8246 32.0682C58.7678 34.0909 57.2507 35.6705 55.2734 36.8068C53.3075 37.9318 50.9496 38.4943 48.1996 38.4943ZM48.2507 32.2045C49.2507 32.2045 50.0973 31.8977 50.7905 31.2841C51.4837 30.6705 52.0121 29.8182 52.3757 28.7273C52.7507 27.6364 52.9382 26.375 52.9382 24.9432C52.9382 23.4886 52.7507 22.2159 52.3757 21.125C52.0121 20.0341 51.4837 19.1818 50.7905 18.5682C50.0973 17.9545 49.2507 17.6477 48.2507 17.6477C47.2166 17.6477 46.3416 17.9545 45.6257 18.5682C44.9212 19.1818 44.3814 20.0341 44.0064 21.125C43.6428 22.2159 43.4609 23.4886 43.4609 24.9432C43.4609 26.375 43.6428 27.6364 44.0064 28.7273C44.3814 29.8182 44.9212 30.6705 45.6257 31.2841C46.3416 31.8977 47.2166 32.2045 48.2507 32.2045ZM99.7749 38V11.8182H108.11V38H99.7749ZM103.951 8.76705C102.781 8.76705 101.775 8.38068 100.934 7.60795C100.093 6.82386 99.6726 5.88068 99.6726 4.77841C99.6726 3.6875 100.093 2.75568 100.934 1.98295C101.775 1.19886 102.781 0.806816 103.951 0.806816C105.133 0.806816 106.138 1.19886 106.968 1.98295C107.809 2.75568 108.229 3.6875 108.229 4.77841C108.229 5.88068 107.809 6.82386 106.968 7.60795C106.138 8.38068 105.133 8.76705 103.951 8.76705ZM130.308 26.6989V11.8182H138.626V38H130.683V33.125H130.41C129.83 34.7273 128.842 36 127.444 36.9432C126.058 37.875 124.381 38.3409 122.415 38.3409C120.631 38.3409 119.063 37.9318 117.711 37.1136C116.359 36.2955 115.308 35.1534 114.558 33.6875C113.808 32.2102 113.427 30.483 113.415 28.5057V11.8182H121.751V26.8693C121.762 28.2898 122.137 29.4091 122.876 30.2273C123.614 31.0455 124.62 31.4545 125.893 31.4545C126.722 31.4545 127.467 31.2727 128.126 30.9091C128.796 30.5341 129.325 29.9943 129.711 29.2898C130.109 28.5739 130.308 27.7102 130.308 26.6989ZM143.931 38V11.8182H151.857V16.625H152.147C152.692 15.0341 153.613 13.7784 154.908 12.858C156.204 11.9375 157.749 11.4773 159.545 11.4773C161.363 11.4773 162.92 11.9432 164.215 12.875C165.511 13.8068 166.335 15.0568 166.687 16.625H166.96C167.448 15.0682 168.403 13.8239 169.823 12.892C171.244 11.9489 172.92 11.4773 174.852 11.4773C177.329 11.4773 179.34 12.2727 180.886 13.8636C182.431 15.4432 183.204 17.6136 183.204 20.375V38H174.869V22.2841C174.869 20.9773 174.533 19.983 173.863 19.3011C173.192 18.608 172.323 18.2614 171.255 18.2614C170.107 18.2614 169.204 18.6364 168.545 19.3864C167.897 20.125 167.573 21.1193 167.573 22.3693V38H159.562V22.1989C159.562 20.983 159.232 20.0227 158.573 19.3182C157.914 18.6136 157.045 18.2614 155.965 18.2614C155.238 18.2614 154.596 18.4375 154.039 18.7898C153.482 19.1307 153.045 19.6193 152.727 20.2557C152.42 20.892 152.266 21.642 152.266 22.5057V38H143.931Z" fill="white"/>
<path d="M72.8771 3.09091L79.2521 14.1193H79.5249L85.968 3.09091H95.4112L84.8771 20.5455L95.7521 38H86.0703L79.5249 26.8523H79.2521L72.7067 38H63.093L73.9169 20.5455L63.3658 3.09091H72.8771Z" fill="#368FDD"/>
</svg>
