<svg width="61" height="35" viewBox="0 0 61 35" fill="none" xmlns="http://www.w3.org/2000/svg">
<path d="M13.6798 35H0.77642V0.0909081H13.6628C17.2196 0.0909081 20.2821 0.789772 22.8503 2.1875C25.4298 3.57386 27.4185 5.57386 28.8162 8.1875C30.2139 10.7898 30.9128 13.9034 30.9128 17.5284C30.9128 21.1648 30.2139 24.2898 28.8162 26.9034C27.4298 29.517 25.4469 31.5227 22.8673 32.9205C20.2878 34.3068 17.2253 35 13.6798 35ZM9.21392 27.8068H13.356C15.3105 27.8068 16.9639 27.4773 18.3162 26.8182C19.6798 26.1477 20.7082 25.0625 21.4014 23.5625C22.106 22.0511 22.4582 20.0398 22.4582 17.5284C22.4582 15.017 22.106 13.017 21.4014 11.5284C20.6969 10.0284 19.6571 8.94886 18.2821 8.28977C16.9185 7.61932 15.2366 7.28409 13.2366 7.28409H9.21392V27.8068Z" fill="white"/>
<path d="M37.6099 0.0909081L43.9849 11.1193H44.2577L50.7009 0.0909081H60.144L49.6099 17.5455L60.4849 35H50.8031L44.2577 23.8523H43.9849L37.4395 35H27.8259L38.6497 17.5455L28.0986 0.0909081H37.6099Z" fill="#368FDD"/>
</svg>
